<svg id="a" data-name="Layer_1" xmlns="http://www.w3.org/2000/svg" viewBox="0 0 100 100">
  <path d="M84.09,16.16l-16.26,6.21c-3.12,1.19-6.57,1.16-9.66-.1l-28.5-11.55c-1.19-.48-2.45.51-2.26,1.78l6.21,42.32c.37,2.53-1.7,4.78-4.25,4.55-.92-.08-1.87-.09-2.83,0-8.25.66-14.89,7.52-15.3,15.79-.48,9.61,7.17,17.55,16.68,17.55s16.7-7.48,16.7-16.7c0-.25-.03-.5-.04-.75h.04l-.06-.44c-.06-.8-.16-1.58-.32-2.34l-6.4-46.63c-.17-1.24,1.03-2.21,2.21-1.79l19.68,7.1c1.97.71,3.28,2.58,3.28,4.67v14.33c0,2.22-1.82,3.94-4.04,3.99-.48.01-.96.06-1.46.16-3.68.71-6.55,3.84-6.93,7.57-.54,5.19,3.52,9.57,8.61,9.57,4.5,0,8.2-3.44,8.61-7.83h.04v-29.71c0-2.06,1.27-3.9,3.19-4.63l9.55-3.65c1.09-.42,2.25.39,2.25,1.55v7.73c0,2.02-1.45,3.82-3.46,4.05-.18.02-.36.05-.54.09-2.59.53-4.61,2.75-4.88,5.38-.39,3.72,2.51,6.85,6.15,6.85,3.22,0,5.86-2.46,6.15-5.6h.03l.08-27.99c0-1.16-1.16-1.97-2.25-1.55ZM36.93,77.23l-13.87,8.01c-.94.54-2.11-.14-2.11-1.22v-16.02c0-1.08,1.17-1.76,2.11-1.22l13.87,8.01c.94.54.94,1.9,0,2.44Z" />
</svg>